<?xml version="1.0" encoding="utf-8"?>
<!-- Generator: Adobe Illustrator 26.0.3, SVG Export Plug-In . SVG Version: 6.00 Build 0)  -->
<svg version="1.1" id="Layer_1" xmlns="http://www.w3.org/2000/svg" xmlns:xlink="http://www.w3.org/1999/xlink" x="0px" y="0px"
	 viewBox="0 0 1000 1000" style="enable-background:new 0 0 1000 1000;" xml:space="preserve">
<style type="text/css">
	.st0{fill:#FFFFFF;}
	.st1{fill:none;stroke:#FFFFFF;stroke-width:8.4902;stroke-miterlimit:10;}
</style>
<path class="st0" d="M95,586.8v-164h61.3v164H95z"/>
<path class="st0" d="M357.1,586.8h-59.8V496c0-8-1.8-13.8-5.5-17.3c-3.7-3.6-7.9-5.4-12.7-5.4c-3.4,0-6.9,0.9-10.7,2.8
	c-3.8,1.9-7.2,4.5-10.4,7.9c-3.1,3.4-5.7,7.2-7.6,11.6v91.3h-59.8V423.6h53.8v24.7c4-6,9-11,15.1-15c6.1-4,13.1-7.1,21.1-9.1
	c8-2.1,16.7-3.1,26.1-3.1c11.3,0,20.3,2,27.1,5.9c6.7,3.9,11.8,9,15.1,15.1s5.6,12.6,6.6,19.3c1.1,6.7,1.6,12.8,1.6,18.4
	L357.1,586.8L357.1,586.8z"/>
<path class="st0" d="M368.1,669.6c4.8,1.7,9.3,3,13.4,3.9c4.1,0.9,7.8,1.4,11.2,1.4c4.4,0,8.1-0.8,11-2.4c2.9-1.6,19.4-70,21.1-73.3
	c1.7-3.2,2.7-7.2,3.1-11.8l-60.1-163.9h61.3l31.5,103.1L486,423.6h55.7l-70.2,249.6c-3.1,10.6-8.3,19.9-15.4,27.9
	c-7.1,8-15.6,14.2-25.5,18.7c-9.9,4.5-20.4,6.7-31.8,6.7c-5.2,0-10.4-0.5-15.6-1.4c-5.1-0.9-10.2-2.5-15.3-4.6V669.6z"/>
<path class="st0" d="M545.2,537.7c0-10.9,3-20.6,9.1-28.9c6.1-8.4,14.5-14.9,25.3-19.6c10.8-4.7,23.1-7.1,37-7.1
	c6.5,0,12.6,0.5,18.4,1.6c5.8,1.1,10.7,2.6,14.9,4.7v-5c0-7.5-2.2-13-6.8-16.6c-4.5-3.6-11.8-5.4-21.9-5.4c-9.2,0-17.9,1.5-26,4.6
	c-8.1,3-16.5,7.5-25.3,13.4l-17.3-37.1c11.1-7.1,22.8-12.4,35.1-15.9c12.3-3.5,25.4-5.2,39.5-5.2c26.2,0,46.5,5.8,60.9,17.4
	c14.4,11.6,21.6,28.7,21.6,51.4v31.3c0,5.5,0.8,9.4,2.5,11.5c1.7,2.2,4.6,3.4,8.8,3.8v50.3c-4.8,1.1-9.4,1.8-13.7,2.4
	c-4.3,0.5-8.1,0.8-11.5,0.8c-10.7,0-18.8-1.9-24.4-5.8c-5.6-3.9-9.2-9.6-10.9-17.1l-1.3-6c-7.3,9.4-15.8,16.6-25.5,21.6
	c-9.6,4.9-19.9,7.4-30.8,7.4c-10.9,0-20.8-2.3-29.6-6.8s-15.7-10.8-20.8-18.7C547.7,556.5,545.2,547.6,545.2,537.7z M642.1,541.2
	c2.3-1.6,4.2-3.3,5.7-5.2s2.2-3.8,2.2-5.8v-11.6c-3.4-1.2-7.2-2.2-11.5-3c-4.3-0.8-8.1-1.2-11.5-1.2c-7.1,0-13.2,1.7-18.1,5.1
	c-4.9,3.4-7.4,7.6-7.4,12.8c0,2.8,0.8,5.3,2.5,7.6c1.7,2.3,4,4.1,6.9,5.3c2.9,1.3,6.3,1.9,10.1,1.9c3.6,0,7.3-0.6,11.2-1.6
	C636,544.5,639.3,543,642.1,541.2z"/>
<path class="st0" d="M733.6,537.7c0-10.9,3-20.6,9.1-28.9s14.5-14.9,25.3-19.6c10.8-4.7,23.1-7.1,37-7.1c6.5,0,12.6,0.5,18.4,1.6
	c5.8,1.1,10.7,2.6,14.9,4.7v-5c0-7.5-2.2-13-6.8-16.6c-4.5-3.6-11.8-5.4-21.9-5.4c-9.2,0-17.9,1.5-26,4.6c-8.1,3-16.5,7.5-25.3,13.4
	l-17.3-37.1c11.1-7.1,22.8-12.4,35.1-15.9c12.3-3.5,25.4-5.2,39.5-5.2c26.2,0,46.5,5.8,60.9,17.4c14.4,11.6,21.6,28.7,21.6,51.4
	v31.3c0,5.5,0.8,9.4,2.5,11.5c1.7,2.2,4.6,3.4,8.8,3.8v50.3c-4.8,1.1-9.4,1.8-13.7,2.4c-4.3,0.5-8.1,0.8-11.5,0.8
	c-10.7,0-18.8-1.9-24.4-5.8c-5.6-3.9-9.2-9.6-10.9-17.1l-1.3-6c-7.3,9.4-15.8,16.6-25.5,21.6c-9.6,4.9-19.9,7.4-30.8,7.4
	c-10.9,0-20.8-2.3-29.6-6.8s-15.7-10.8-20.8-18.7C736.1,556.5,733.6,547.6,733.6,537.7z M830.5,541.2c2.3-1.6,4.2-3.3,5.7-5.2
	s2.2-3.8,2.2-5.8v-11.6c-3.4-1.2-7.2-2.2-11.5-3c-4.3-0.8-8.1-1.2-11.5-1.2c-7.1,0-13.2,1.7-18.1,5.1c-4.9,3.4-7.4,7.6-7.4,12.8
	c0,2.8,0.8,5.3,2.5,7.6c1.7,2.3,4,4.1,6.9,5.3c2.9,1.3,6.3,1.9,10.1,1.9c3.6,0,7.3-0.6,11.2-1.6C824.5,544.5,827.8,543,830.5,541.2z
	"/>
<g>
	<g>
		<path class="st0" d="M509.7,651.7c0-4.6,0.8-9.2,2.4-13.6c1.6-4.5,4-8.5,7.1-12.2s6.9-6.6,11.4-8.8c4.5-2.2,9.6-3.3,15.3-3.3
			c6.8,0,12.6,1.6,17.4,4.7c4.8,3.1,8.4,7.1,10.8,11.9l-7.6,4.9c-1.5-3.2-3.4-5.8-5.7-7.6c-2.3-1.9-4.8-3.2-7.5-4
			c-2.7-0.8-5.3-1.2-7.9-1.2c-4.2,0-7.9,0.8-11.2,2.6c-3.2,1.7-6,4-8.2,6.8c-2.2,2.8-3.9,6-5,9.6c-1.1,3.5-1.7,7.1-1.7,10.6
			c0,3.9,0.7,7.7,2,11.3c1.3,3.6,3.2,6.8,5.5,9.6c2.4,2.8,5.1,5,8.3,6.6c3.2,1.6,6.7,2.5,10.5,2.5c2.6,0,5.3-0.5,8.1-1.4
			c2.8-0.9,5.4-2.4,7.8-4.3c2.4-2,4.3-4.5,5.8-7.6l8,4.4c-1.6,3.8-4,7-7.3,9.6c-3.3,2.6-6.9,4.6-11,6s-8,2-11.9,2
			c-5.2,0-10-1.1-14.3-3.4c-4.4-2.2-8.1-5.2-11.3-9c-3.2-3.7-5.6-7.9-7.4-12.6C510.6,661.2,509.7,656.5,509.7,651.7z"/>
		<path class="st0" d="M618.4,690.9c-5.3,0-10.2-1.1-14.6-3.2s-8.1-5-11.3-8.7c-3.2-3.7-5.6-7.8-7.3-12.4s-2.6-9.3-2.6-14.2
			c0-5.1,0.9-9.9,2.7-14.5c1.8-4.6,4.3-8.7,7.6-12.3c3.2-3.6,7-6.4,11.4-8.6c4.3-2.1,9.1-3.2,14.2-3.2c5.3,0,10.2,1.1,14.6,3.3
			c4.3,2.2,8.1,5.2,11.2,8.9c3.1,3.7,5.6,7.8,7.3,12.4c1.7,4.6,2.6,9.2,2.6,14c0,5.1-0.9,9.9-2.7,14.5c-1.8,4.6-4.3,8.7-7.5,12.3
			c-3.2,3.6-7,6.4-11.4,8.5C628.3,689.8,623.5,690.9,618.4,690.9z M592.4,652.4c0,3.9,0.6,7.6,1.9,11.2c1.2,3.6,3,6.8,5.3,9.6
			c2.3,2.8,5,5,8.2,6.6c3.2,1.6,6.8,2.5,10.7,2.5c4.1,0,7.7-0.8,10.9-2.6c3.2-1.7,5.9-4,8.2-6.8c2.2-2.8,4-6.1,5.1-9.6
			c1.2-3.6,1.8-7.2,1.8-10.8c0-3.9-0.6-7.6-1.9-11.1c-1.2-3.6-3-6.7-5.3-9.6c-2.3-2.8-5.1-5-8.2-6.6c-3.2-1.6-6.7-2.4-10.5-2.4
			c-4.1,0-7.7,0.8-10.9,2.5c-3.2,1.7-5.9,3.9-8.2,6.8c-2.2,2.8-4,6-5.2,9.6C593,645,592.4,648.7,592.4,652.4z"/>
		<path class="st0" d="M667.6,690.4v-75.9h50.2v8.6h-40.5v25.4h34.1v8h-34.1v34L667.6,690.4L667.6,690.4z"/>
		<path class="st0" d="M730,690.4v-75.9h50.2v8.6h-40.5v25.4h34.1v8h-34.1v34L730,690.4L730,690.4z"/>
		<path class="st0" d="M843.9,681.8v8.6h-51.6v-75.9h50.6v8.6h-41v24.6h35.6v8h-35.6v26.2L843.9,681.8L843.9,681.8z"/>
		<path class="st0" d="M908.6,681.8v8.6H857v-75.9h50.6v8.6h-40.9v24.6h35.6v8h-35.6v26.2L908.6,681.8L908.6,681.8z"/>
	</g>
</g>
<circle class="st0" cx="125.1" cy="379.5" r="30.7"/>
<circle class="st1" cx="499.5" cy="497.5" r="495.5"/>
</svg>
